<mxfile host="app.diagrams.net" modified="2023-10-11T05:29:36.695Z" agent="Mozilla/5.0 (Windows NT 10.0; Win64; x64) AppleWebKit/537.36 (KHTML, like Gecko) Chrome/117.0.0.0 Safari/537.36" etag="O71qDG0cz5lyewaswgJr" version="22.0.4" type="github" pages="3">
  <diagram id="C5RBs43oDa-KdzZeNtuy" name="조회">
    <mxGraphModel dx="1841" dy="2226" grid="1" gridSize="10" guides="1" tooltips="1" connect="1" arrows="1" fold="1" page="1" pageScale="1" pageWidth="827" pageHeight="1169" math="0" shadow="0">
      <root>
        <mxCell id="WIyWlLk6GJQsqaUBKTNV-0" />
        <mxCell id="WIyWlLk6GJQsqaUBKTNV-1" parent="WIyWlLk6GJQsqaUBKTNV-0" />
        <mxCell id="ExOvYqoIWGGq813kWkuq-1" style="edgeStyle=orthogonalEdgeStyle;rounded=0;orthogonalLoop=1;jettySize=auto;html=1;exitX=1;exitY=0.5;exitDx=0;exitDy=0;entryX=0.5;entryY=0;entryDx=0;entryDy=0;" edge="1" parent="WIyWlLk6GJQsqaUBKTNV-1" source="WIyWlLk6GJQsqaUBKTNV-3" target="ExOvYqoIWGGq813kWkuq-0">
          <mxGeometry relative="1" as="geometry" />
        </mxCell>
        <mxCell id="WIyWlLk6GJQsqaUBKTNV-3" value="&lt;font style=&quot;font-size: 15px;&quot;&gt;&lt;b&gt;API Request 호출&lt;/b&gt;&lt;/font&gt;" style="rounded=1;whiteSpace=wrap;html=1;fontSize=12;glass=0;strokeWidth=1;shadow=0;" parent="WIyWlLk6GJQsqaUBKTNV-1" vertex="1">
          <mxGeometry x="160" y="-140" width="200" height="40" as="geometry" />
        </mxCell>
        <mxCell id="iOXxXtn0Xc8_KU_js0-X-39" value="" style="edgeStyle=orthogonalEdgeStyle;rounded=0;orthogonalLoop=1;jettySize=auto;html=1;" edge="1" parent="WIyWlLk6GJQsqaUBKTNV-1" source="WIyWlLk6GJQsqaUBKTNV-6">
          <mxGeometry relative="1" as="geometry">
            <mxPoint x="340" y="370" as="targetPoint" />
            <Array as="points">
              <mxPoint x="515" y="370" />
              <mxPoint x="441" y="370" />
            </Array>
          </mxGeometry>
        </mxCell>
        <mxCell id="iOXxXtn0Xc8_KU_js0-X-40" value="&lt;font color=&quot;#00994d&quot;&gt;Success&lt;/font&gt;" style="edgeLabel;html=1;align=center;verticalAlign=middle;resizable=0;points=[];" vertex="1" connectable="0" parent="iOXxXtn0Xc8_KU_js0-X-39">
          <mxGeometry x="-0.169" y="-3" relative="1" as="geometry">
            <mxPoint x="3" y="-87" as="offset" />
          </mxGeometry>
        </mxCell>
        <mxCell id="WIyWlLk6GJQsqaUBKTNV-6" value="&lt;b style=&quot;border-color: var(--border-color);&quot;&gt;&lt;font style=&quot;border-color: var(--border-color); font-size: 15px;&quot;&gt;인증확인&lt;font color=&quot;#ff3333&quot;&gt;&lt;br&gt;&lt;/font&gt;&lt;/font&gt;&lt;/b&gt;&lt;font color=&quot;#3333ff&quot;&gt;LICENSE SERVER&lt;/font&gt;" style="rhombus;whiteSpace=wrap;html=1;shadow=0;fontFamily=Helvetica;fontSize=12;align=center;strokeWidth=1;spacing=6;spacingTop=-4;" parent="WIyWlLk6GJQsqaUBKTNV-1" vertex="1">
          <mxGeometry x="440" y="151" width="150" height="100" as="geometry" />
        </mxCell>
        <mxCell id="WIyWlLk6GJQsqaUBKTNV-7" value="HttpResponse&lt;br&gt;&lt;br&gt;- 인증실패&lt;br&gt;" style="rounded=1;whiteSpace=wrap;html=1;fontSize=12;glass=0;strokeWidth=1;shadow=0;" parent="WIyWlLk6GJQsqaUBKTNV-1" vertex="1">
          <mxGeometry x="640" y="240" width="120" height="180" as="geometry" />
        </mxCell>
        <mxCell id="iOXxXtn0Xc8_KU_js0-X-20" value="" style="edgeStyle=orthogonalEdgeStyle;rounded=0;orthogonalLoop=1;jettySize=auto;html=1;" edge="1" parent="WIyWlLk6GJQsqaUBKTNV-1" source="WIyWlLk6GJQsqaUBKTNV-10" target="iOXxXtn0Xc8_KU_js0-X-1">
          <mxGeometry relative="1" as="geometry" />
        </mxCell>
        <mxCell id="iOXxXtn0Xc8_KU_js0-X-24" value="&lt;font color=&quot;#00994d&quot;&gt;Success&lt;/font&gt;" style="edgeLabel;html=1;align=center;verticalAlign=middle;resizable=0;points=[];" vertex="1" connectable="0" parent="iOXxXtn0Xc8_KU_js0-X-20">
          <mxGeometry x="-0.018" relative="1" as="geometry">
            <mxPoint as="offset" />
          </mxGeometry>
        </mxCell>
        <mxCell id="WIyWlLk6GJQsqaUBKTNV-10" value="&lt;b&gt;&lt;font style=&quot;font-size: 15px;&quot;&gt;복호화&lt;/font&gt;&lt;/b&gt;&lt;br&gt;- 암호화된 DATAKEY&lt;br&gt;- 암호화된 DATA" style="rhombus;whiteSpace=wrap;html=1;shadow=0;fontFamily=Helvetica;fontSize=12;align=center;strokeWidth=1;spacing=6;spacingTop=-4;" parent="WIyWlLk6GJQsqaUBKTNV-1" vertex="1">
          <mxGeometry x="185" y="320" width="150" height="100" as="geometry" />
        </mxCell>
        <mxCell id="WIyWlLk6GJQsqaUBKTNV-11" value="&lt;font style=&quot;font-size: 15px;&quot;&gt;&lt;b&gt;API Response 전송&lt;/b&gt;&lt;/font&gt;" style="rounded=1;whiteSpace=wrap;html=1;fontSize=12;glass=0;strokeWidth=1;shadow=0;" parent="WIyWlLk6GJQsqaUBKTNV-1" vertex="1">
          <mxGeometry x="160" y="1000" width="200" height="40" as="geometry" />
        </mxCell>
        <mxCell id="iOXxXtn0Xc8_KU_js0-X-21" value="" style="edgeStyle=orthogonalEdgeStyle;rounded=0;orthogonalLoop=1;jettySize=auto;html=1;" edge="1" parent="WIyWlLk6GJQsqaUBKTNV-1" source="iOXxXtn0Xc8_KU_js0-X-1" target="iOXxXtn0Xc8_KU_js0-X-4">
          <mxGeometry relative="1" as="geometry" />
        </mxCell>
        <mxCell id="iOXxXtn0Xc8_KU_js0-X-25" value="&lt;font color=&quot;#00994d&quot;&gt;Success&lt;/font&gt;" style="edgeLabel;html=1;align=center;verticalAlign=middle;resizable=0;points=[];" vertex="1" connectable="0" parent="iOXxXtn0Xc8_KU_js0-X-21">
          <mxGeometry x="-0.215" y="3" relative="1" as="geometry">
            <mxPoint as="offset" />
          </mxGeometry>
        </mxCell>
        <mxCell id="iOXxXtn0Xc8_KU_js0-X-1" value="&lt;b&gt;&lt;font style=&quot;font-size: 15px;&quot;&gt;API SERVICE&lt;/font&gt;&lt;/b&gt;" style="rhombus;whiteSpace=wrap;html=1;shadow=0;fontFamily=Helvetica;fontSize=12;align=center;strokeWidth=1;spacing=6;spacingTop=-4;" vertex="1" parent="WIyWlLk6GJQsqaUBKTNV-1">
          <mxGeometry x="185" y="480" width="150" height="100" as="geometry" />
        </mxCell>
        <mxCell id="iOXxXtn0Xc8_KU_js0-X-2" value="" style="rounded=1;whiteSpace=wrap;html=1;fontSize=12;glass=0;strokeWidth=1;shadow=0;" vertex="1" parent="WIyWlLk6GJQsqaUBKTNV-1">
          <mxGeometry x="400" y="570" width="120" height="80" as="geometry" />
        </mxCell>
        <mxCell id="iOXxXtn0Xc8_KU_js0-X-3" value="&lt;font color=&quot;#ff3333&quot;&gt;Fail&lt;/font&gt;" style="edgeStyle=orthogonalEdgeStyle;rounded=0;html=1;jettySize=auto;orthogonalLoop=1;fontSize=11;endArrow=block;endFill=0;endSize=8;strokeWidth=1;shadow=0;labelBackgroundColor=none;" edge="1" parent="WIyWlLk6GJQsqaUBKTNV-1" source="iOXxXtn0Xc8_KU_js0-X-4" target="iOXxXtn0Xc8_KU_js0-X-5">
          <mxGeometry y="10" relative="1" as="geometry">
            <mxPoint as="offset" />
            <Array as="points">
              <mxPoint x="450" y="690" />
            </Array>
          </mxGeometry>
        </mxCell>
        <mxCell id="iOXxXtn0Xc8_KU_js0-X-22" value="" style="edgeStyle=orthogonalEdgeStyle;rounded=0;orthogonalLoop=1;jettySize=auto;html=1;" edge="1" parent="WIyWlLk6GJQsqaUBKTNV-1" source="iOXxXtn0Xc8_KU_js0-X-4" target="iOXxXtn0Xc8_KU_js0-X-7">
          <mxGeometry relative="1" as="geometry" />
        </mxCell>
        <mxCell id="iOXxXtn0Xc8_KU_js0-X-26" value="&lt;font color=&quot;#00994d&quot;&gt;Success&lt;/font&gt;" style="edgeLabel;html=1;align=center;verticalAlign=middle;resizable=0;points=[];" vertex="1" connectable="0" parent="iOXxXtn0Xc8_KU_js0-X-22">
          <mxGeometry x="-0.1272" relative="1" as="geometry">
            <mxPoint as="offset" />
          </mxGeometry>
        </mxCell>
        <mxCell id="iOXxXtn0Xc8_KU_js0-X-4" value="&lt;b&gt;&lt;font style=&quot;font-size: 15px;&quot;&gt;&amp;nbsp;API 로그 저장&lt;/font&gt;&lt;/b&gt;" style="rhombus;whiteSpace=wrap;html=1;shadow=0;fontFamily=Helvetica;fontSize=12;align=center;strokeWidth=1;spacing=6;spacingTop=-4;" vertex="1" parent="WIyWlLk6GJQsqaUBKTNV-1">
          <mxGeometry x="185" y="640" width="150" height="100" as="geometry" />
        </mxCell>
        <mxCell id="iOXxXtn0Xc8_KU_js0-X-5" value="" style="rounded=1;whiteSpace=wrap;html=1;fontSize=12;glass=0;strokeWidth=1;shadow=0;" vertex="1" parent="WIyWlLk6GJQsqaUBKTNV-1">
          <mxGeometry x="390" y="730" width="120" height="80" as="geometry" />
        </mxCell>
        <mxCell id="iOXxXtn0Xc8_KU_js0-X-6" value="&lt;font color=&quot;#ff3333&quot;&gt;Fail&lt;/font&gt;" style="edgeStyle=orthogonalEdgeStyle;rounded=0;html=1;jettySize=auto;orthogonalLoop=1;fontSize=11;endArrow=block;endFill=0;endSize=8;strokeWidth=1;shadow=0;labelBackgroundColor=none;" edge="1" parent="WIyWlLk6GJQsqaUBKTNV-1" source="iOXxXtn0Xc8_KU_js0-X-7" target="iOXxXtn0Xc8_KU_js0-X-8">
          <mxGeometry y="10" relative="1" as="geometry">
            <mxPoint as="offset" />
            <Array as="points">
              <mxPoint x="440" y="860" />
            </Array>
          </mxGeometry>
        </mxCell>
        <mxCell id="iOXxXtn0Xc8_KU_js0-X-11" value="" style="edgeStyle=orthogonalEdgeStyle;rounded=0;orthogonalLoop=1;jettySize=auto;html=1;" edge="1" parent="WIyWlLk6GJQsqaUBKTNV-1" source="iOXxXtn0Xc8_KU_js0-X-7" target="WIyWlLk6GJQsqaUBKTNV-11">
          <mxGeometry relative="1" as="geometry" />
        </mxCell>
        <mxCell id="iOXxXtn0Xc8_KU_js0-X-27" value="&lt;font color=&quot;#00994d&quot;&gt;Success&lt;/font&gt;" style="edgeLabel;html=1;align=center;verticalAlign=middle;resizable=0;points=[];" vertex="1" connectable="0" parent="iOXxXtn0Xc8_KU_js0-X-11">
          <mxGeometry x="-0.0767" y="1" relative="1" as="geometry">
            <mxPoint as="offset" />
          </mxGeometry>
        </mxCell>
        <mxCell id="iOXxXtn0Xc8_KU_js0-X-7" value="&lt;b&gt;&lt;font style=&quot;font-size: 15px;&quot;&gt;암호화&lt;/font&gt;&lt;/b&gt;" style="rhombus;whiteSpace=wrap;html=1;shadow=0;fontFamily=Helvetica;fontSize=12;align=center;strokeWidth=1;spacing=6;spacingTop=-4;" vertex="1" parent="WIyWlLk6GJQsqaUBKTNV-1">
          <mxGeometry x="185" y="810" width="150" height="100" as="geometry" />
        </mxCell>
        <mxCell id="iOXxXtn0Xc8_KU_js0-X-8" value="" style="rounded=1;whiteSpace=wrap;html=1;fontSize=12;glass=0;strokeWidth=1;shadow=0;" vertex="1" parent="WIyWlLk6GJQsqaUBKTNV-1">
          <mxGeometry x="390" y="890" width="120" height="80" as="geometry" />
        </mxCell>
        <mxCell id="iOXxXtn0Xc8_KU_js0-X-13" value="&lt;font color=&quot;#ff3333&quot;&gt;Fail&lt;/font&gt;" style="edgeStyle=orthogonalEdgeStyle;rounded=0;html=1;jettySize=auto;orthogonalLoop=1;fontSize=11;endArrow=block;endFill=0;endSize=8;strokeWidth=1;shadow=0;labelBackgroundColor=none;" edge="1" parent="WIyWlLk6GJQsqaUBKTNV-1">
          <mxGeometry y="10" relative="1" as="geometry">
            <mxPoint as="offset" />
            <mxPoint x="335" y="530" as="sourcePoint" />
            <mxPoint x="445" y="570" as="targetPoint" />
            <Array as="points">
              <mxPoint x="445" y="530" />
            </Array>
          </mxGeometry>
        </mxCell>
        <mxCell id="iOXxXtn0Xc8_KU_js0-X-37" value="&lt;font color=&quot;#ff3333&quot;&gt;Fail&lt;/font&gt;" style="edgeStyle=orthogonalEdgeStyle;rounded=0;html=1;jettySize=auto;orthogonalLoop=1;fontSize=11;endArrow=block;endFill=0;endSize=8;strokeWidth=1;shadow=0;labelBackgroundColor=none;" edge="1" parent="WIyWlLk6GJQsqaUBKTNV-1">
          <mxGeometry y="10" relative="1" as="geometry">
            <mxPoint as="offset" />
            <mxPoint x="590" y="200" as="sourcePoint" />
            <mxPoint x="700" y="240" as="targetPoint" />
            <Array as="points">
              <mxPoint x="700" y="200" />
            </Array>
          </mxGeometry>
        </mxCell>
        <mxCell id="iOXxXtn0Xc8_KU_js0-X-41" value="API 로그 저장" style="rhombus;whiteSpace=wrap;html=1;" vertex="1" parent="WIyWlLk6GJQsqaUBKTNV-1">
          <mxGeometry x="1040" y="520" width="210" height="80" as="geometry" />
        </mxCell>
        <mxCell id="ExOvYqoIWGGq813kWkuq-2" value="" style="edgeStyle=orthogonalEdgeStyle;rounded=0;orthogonalLoop=1;jettySize=auto;html=1;" edge="1" parent="WIyWlLk6GJQsqaUBKTNV-1" source="ExOvYqoIWGGq813kWkuq-0" target="WIyWlLk6GJQsqaUBKTNV-6">
          <mxGeometry relative="1" as="geometry" />
        </mxCell>
        <mxCell id="ExOvYqoIWGGq813kWkuq-0" value="API Main Log 저장" style="rhombus;whiteSpace=wrap;html=1;" vertex="1" parent="WIyWlLk6GJQsqaUBKTNV-1">
          <mxGeometry x="410" y="-10" width="210" height="80" as="geometry" />
        </mxCell>
      </root>
    </mxGraphModel>
  </diagram>
  <diagram id="kE9OLjCa5iDiAHe_GSVb" name="저장">
    <mxGraphModel dx="1841" dy="1057" grid="1" gridSize="10" guides="1" tooltips="1" connect="1" arrows="1" fold="1" page="1" pageScale="1" pageWidth="827" pageHeight="1169" math="0" shadow="0">
      <root>
        <mxCell id="0" />
        <mxCell id="1" parent="0" />
      </root>
    </mxGraphModel>
  </diagram>
  <diagram id="I57p5ygNT6BtR7KV1EMp" name="페이지-3">
    <mxGraphModel dx="3068" dy="1762" grid="1" gridSize="10" guides="1" tooltips="1" connect="1" arrows="1" fold="1" page="1" pageScale="1" pageWidth="827" pageHeight="1169" math="0" shadow="0">
      <root>
        <mxCell id="0" />
        <mxCell id="1" parent="0" />
        <mxCell id="opAA3omX16UUN0BzFTfk-46" value="" style="edgeStyle=orthogonalEdgeStyle;rounded=0;orthogonalLoop=1;jettySize=auto;html=1;entryX=0.5;entryY=0;entryDx=0;entryDy=0;" edge="1" parent="1" source="opAA3omX16UUN0BzFTfk-2" target="opAA3omX16UUN0BzFTfk-58">
          <mxGeometry relative="1" as="geometry">
            <mxPoint x="515" y="200" as="targetPoint" />
          </mxGeometry>
        </mxCell>
        <mxCell id="opAA3omX16UUN0BzFTfk-2" value="&lt;font style=&quot;font-size: 15px;&quot;&gt;&lt;b&gt;API Request 호출&lt;/b&gt;&lt;/font&gt;" style="rounded=1;whiteSpace=wrap;html=1;fontSize=12;glass=0;strokeWidth=1;shadow=0;" vertex="1" parent="1">
          <mxGeometry x="415" y="134" width="200" height="40" as="geometry" />
        </mxCell>
        <mxCell id="opAA3omX16UUN0BzFTfk-3" value="" style="edgeStyle=orthogonalEdgeStyle;rounded=0;orthogonalLoop=1;jettySize=auto;html=1;entryX=0.5;entryY=0;entryDx=0;entryDy=0;" edge="1" parent="1" source="opAA3omX16UUN0BzFTfk-5" target="opAA3omX16UUN0BzFTfk-9">
          <mxGeometry relative="1" as="geometry">
            <mxPoint x="340" y="370" as="targetPoint" />
            <Array as="points">
              <mxPoint x="515" y="520" />
            </Array>
          </mxGeometry>
        </mxCell>
        <mxCell id="opAA3omX16UUN0BzFTfk-4" value="&lt;font color=&quot;#00994d&quot;&gt;Success&lt;/font&gt;" style="edgeLabel;html=1;align=center;verticalAlign=middle;resizable=0;points=[];" vertex="1" connectable="0" parent="opAA3omX16UUN0BzFTfk-3">
          <mxGeometry x="-0.169" y="-3" relative="1" as="geometry">
            <mxPoint x="3" y="-87" as="offset" />
          </mxGeometry>
        </mxCell>
        <mxCell id="opAA3omX16UUN0BzFTfk-48" value="" style="edgeStyle=orthogonalEdgeStyle;rounded=0;orthogonalLoop=1;jettySize=auto;html=1;" edge="1" parent="1" source="opAA3omX16UUN0BzFTfk-5" target="opAA3omX16UUN0BzFTfk-6">
          <mxGeometry relative="1" as="geometry" />
        </mxCell>
        <mxCell id="opAA3omX16UUN0BzFTfk-5" value="&lt;b style=&quot;border-color: var(--border-color);&quot;&gt;&lt;font style=&quot;border-color: var(--border-color); font-size: 15px;&quot;&gt;인증확인&lt;font color=&quot;#ff3333&quot;&gt;&lt;br&gt;&lt;/font&gt;&lt;/font&gt;&lt;/b&gt;LICENSE SERVER" style="rhombus;whiteSpace=wrap;html=1;shadow=0;fontFamily=Helvetica;fontSize=12;align=center;strokeWidth=1;spacing=6;spacingTop=-4;" vertex="1" parent="1">
          <mxGeometry x="440" y="340" width="150" height="100" as="geometry" />
        </mxCell>
        <mxCell id="opAA3omX16UUN0BzFTfk-49" style="edgeStyle=orthogonalEdgeStyle;rounded=0;orthogonalLoop=1;jettySize=auto;html=1;entryX=0.5;entryY=1;entryDx=0;entryDy=0;" edge="1" parent="1" source="opAA3omX16UUN0BzFTfk-6">
          <mxGeometry relative="1" as="geometry">
            <mxPoint x="965" y="270" as="targetPoint" />
          </mxGeometry>
        </mxCell>
        <mxCell id="opAA3omX16UUN0BzFTfk-6" value="HttpResponse&lt;br&gt;- 인증실패" style="rounded=1;whiteSpace=wrap;html=1;fontSize=12;glass=0;strokeWidth=1;shadow=0;" vertex="1" parent="1">
          <mxGeometry x="684" y="355" width="127" height="70" as="geometry" />
        </mxCell>
        <mxCell id="opAA3omX16UUN0BzFTfk-7" value="" style="edgeStyle=orthogonalEdgeStyle;rounded=0;orthogonalLoop=1;jettySize=auto;html=1;" edge="1" parent="1" source="opAA3omX16UUN0BzFTfk-9" target="opAA3omX16UUN0BzFTfk-13">
          <mxGeometry relative="1" as="geometry" />
        </mxCell>
        <mxCell id="opAA3omX16UUN0BzFTfk-8" value="&lt;font color=&quot;#00994d&quot;&gt;Success&lt;/font&gt;" style="edgeLabel;html=1;align=center;verticalAlign=middle;resizable=0;points=[];" vertex="1" connectable="0" parent="opAA3omX16UUN0BzFTfk-7">
          <mxGeometry x="-0.018" relative="1" as="geometry">
            <mxPoint as="offset" />
          </mxGeometry>
        </mxCell>
        <mxCell id="opAA3omX16UUN0BzFTfk-33" value="" style="edgeStyle=orthogonalEdgeStyle;rounded=0;orthogonalLoop=1;jettySize=auto;html=1;" edge="1" parent="1" source="opAA3omX16UUN0BzFTfk-9" target="opAA3omX16UUN0BzFTfk-32">
          <mxGeometry relative="1" as="geometry" />
        </mxCell>
        <mxCell id="opAA3omX16UUN0BzFTfk-45" value="&lt;font color=&quot;#ff3333&quot;&gt;Fail&lt;/font&gt;" style="edgeLabel;html=1;align=center;verticalAlign=middle;resizable=0;points=[];" vertex="1" connectable="0" parent="opAA3omX16UUN0BzFTfk-33">
          <mxGeometry x="-0.0685" y="1" relative="1" as="geometry">
            <mxPoint x="-3" y="-9" as="offset" />
          </mxGeometry>
        </mxCell>
        <mxCell id="opAA3omX16UUN0BzFTfk-9" value="&lt;b&gt;&lt;font style=&quot;font-size: 15px;&quot;&gt;복호화&lt;/font&gt;&lt;/b&gt;&lt;br&gt;- 암호화된 DATAKEY&lt;br&gt;- 암호화된 DATA" style="rhombus;whiteSpace=wrap;html=1;shadow=0;fontFamily=Helvetica;fontSize=12;align=center;strokeWidth=1;spacing=6;spacingTop=-4;" vertex="1" parent="1">
          <mxGeometry x="439" y="520" width="150" height="100" as="geometry" />
        </mxCell>
        <mxCell id="opAA3omX16UUN0BzFTfk-10" value="&lt;font style=&quot;font-size: 15px;&quot;&gt;&lt;b&gt;API Response 전송&lt;/b&gt;&lt;/font&gt;" style="rounded=1;whiteSpace=wrap;html=1;fontSize=12;glass=0;strokeWidth=1;shadow=0;" vertex="1" parent="1">
          <mxGeometry x="414" y="1031" width="200" height="40" as="geometry" />
        </mxCell>
        <mxCell id="opAA3omX16UUN0BzFTfk-11" value="" style="edgeStyle=orthogonalEdgeStyle;rounded=0;orthogonalLoop=1;jettySize=auto;html=1;entryX=0.5;entryY=0;entryDx=0;entryDy=0;" edge="1" parent="1" source="opAA3omX16UUN0BzFTfk-13" target="opAA3omX16UUN0BzFTfk-23">
          <mxGeometry relative="1" as="geometry">
            <mxPoint x="514" y="840" as="targetPoint" />
          </mxGeometry>
        </mxCell>
        <mxCell id="opAA3omX16UUN0BzFTfk-12" value="&lt;font color=&quot;#00994d&quot;&gt;Success&lt;/font&gt;" style="edgeLabel;html=1;align=center;verticalAlign=middle;resizable=0;points=[];" vertex="1" connectable="0" parent="opAA3omX16UUN0BzFTfk-11">
          <mxGeometry x="-0.215" y="3" relative="1" as="geometry">
            <mxPoint as="offset" />
          </mxGeometry>
        </mxCell>
        <mxCell id="opAA3omX16UUN0BzFTfk-38" value="&lt;span style=&quot;color: rgb(255, 51, 51); font-family: Helvetica; font-size: 11px; font-style: normal; font-variant-ligatures: normal; font-variant-caps: normal; font-weight: 400; letter-spacing: normal; orphans: 2; text-align: center; text-indent: 0px; text-transform: none; widows: 2; word-spacing: 0px; -webkit-text-stroke-width: 0px; background-color: rgb(251, 251, 251); text-decoration-thickness: initial; text-decoration-style: initial; text-decoration-color: initial; float: none; display: inline !important;&quot;&gt;Fail&lt;/span&gt;" style="edgeStyle=orthogonalEdgeStyle;rounded=0;orthogonalLoop=1;jettySize=auto;html=1;" edge="1" parent="1">
          <mxGeometry x="-0.1368" y="10" relative="1" as="geometry">
            <mxPoint x="589" y="730" as="sourcePoint" />
            <mxPoint x="684" y="730" as="targetPoint" />
            <mxPoint as="offset" />
          </mxGeometry>
        </mxCell>
        <mxCell id="opAA3omX16UUN0BzFTfk-13" value="&lt;b&gt;&lt;font style=&quot;font-size: 15px;&quot;&gt;API SERVICE&lt;/font&gt;&lt;/b&gt;" style="rhombus;whiteSpace=wrap;html=1;shadow=0;fontFamily=Helvetica;fontSize=12;align=center;strokeWidth=1;spacing=6;spacingTop=-4;" vertex="1" parent="1">
          <mxGeometry x="439" y="680" width="150" height="100" as="geometry" />
        </mxCell>
        <mxCell id="opAA3omX16UUN0BzFTfk-41" style="edgeStyle=orthogonalEdgeStyle;rounded=0;orthogonalLoop=1;jettySize=auto;html=1;exitX=1;exitY=0.5;exitDx=0;exitDy=0;entryX=0.5;entryY=1;entryDx=0;entryDy=0;" edge="1" parent="1" source="opAA3omX16UUN0BzFTfk-14">
          <mxGeometry relative="1" as="geometry">
            <mxPoint x="965" y="270" as="targetPoint" />
          </mxGeometry>
        </mxCell>
        <mxCell id="opAA3omX16UUN0BzFTfk-14" value="서비스 실패&lt;br&gt;- case 1&lt;br&gt;- case 2" style="rounded=1;whiteSpace=wrap;html=1;fontSize=12;glass=0;strokeWidth=1;shadow=0;" vertex="1" parent="1">
          <mxGeometry x="684" y="690" width="120" height="80" as="geometry" />
        </mxCell>
        <mxCell id="opAA3omX16UUN0BzFTfk-21" value="" style="edgeStyle=orthogonalEdgeStyle;rounded=0;orthogonalLoop=1;jettySize=auto;html=1;" edge="1" parent="1" source="opAA3omX16UUN0BzFTfk-23" target="opAA3omX16UUN0BzFTfk-10">
          <mxGeometry relative="1" as="geometry">
            <Array as="points">
              <mxPoint x="514" y="980" />
              <mxPoint x="514" y="980" />
            </Array>
          </mxGeometry>
        </mxCell>
        <mxCell id="opAA3omX16UUN0BzFTfk-22" value="&lt;font color=&quot;#00994d&quot;&gt;Success&lt;/font&gt;" style="edgeLabel;html=1;align=center;verticalAlign=middle;resizable=0;points=[];" vertex="1" connectable="0" parent="opAA3omX16UUN0BzFTfk-21">
          <mxGeometry x="-0.0767" y="1" relative="1" as="geometry">
            <mxPoint x="-1" y="15" as="offset" />
          </mxGeometry>
        </mxCell>
        <mxCell id="opAA3omX16UUN0BzFTfk-42" style="edgeStyle=orthogonalEdgeStyle;rounded=0;orthogonalLoop=1;jettySize=auto;html=1;exitX=1;exitY=0.5;exitDx=0;exitDy=0;entryX=0;entryY=0.5;entryDx=0;entryDy=0;" edge="1" parent="1" source="opAA3omX16UUN0BzFTfk-23" target="opAA3omX16UUN0BzFTfk-24">
          <mxGeometry relative="1" as="geometry" />
        </mxCell>
        <mxCell id="opAA3omX16UUN0BzFTfk-43" value="&lt;font color=&quot;#ff3333&quot;&gt;Fail&lt;/font&gt;" style="edgeLabel;html=1;align=center;verticalAlign=middle;resizable=0;points=[];" vertex="1" connectable="0" parent="opAA3omX16UUN0BzFTfk-42">
          <mxGeometry x="-0.0969" y="1" relative="1" as="geometry">
            <mxPoint y="-8" as="offset" />
          </mxGeometry>
        </mxCell>
        <mxCell id="opAA3omX16UUN0BzFTfk-56" style="edgeStyle=orthogonalEdgeStyle;rounded=0;orthogonalLoop=1;jettySize=auto;html=1;entryX=0;entryY=0.5;entryDx=0;entryDy=0;entryPerimeter=0;" edge="1" parent="1">
          <mxGeometry relative="1" as="geometry">
            <mxPoint x="910" y="976" as="targetPoint" />
            <mxPoint x="514" y="936" as="sourcePoint" />
            <Array as="points">
              <mxPoint x="514" y="976" />
            </Array>
          </mxGeometry>
        </mxCell>
        <mxCell id="opAA3omX16UUN0BzFTfk-23" value="&lt;b&gt;&lt;font style=&quot;font-size: 15px;&quot;&gt;암호화&lt;/font&gt;&lt;/b&gt;" style="rhombus;whiteSpace=wrap;html=1;shadow=0;fontFamily=Helvetica;fontSize=12;align=center;strokeWidth=1;spacing=6;spacingTop=-4;" vertex="1" parent="1">
          <mxGeometry x="439" y="840" width="150" height="100" as="geometry" />
        </mxCell>
        <mxCell id="opAA3omX16UUN0BzFTfk-40" style="edgeStyle=orthogonalEdgeStyle;rounded=0;orthogonalLoop=1;jettySize=auto;html=1;exitX=1;exitY=0.5;exitDx=0;exitDy=0;" edge="1" parent="1" source="opAA3omX16UUN0BzFTfk-24">
          <mxGeometry relative="1" as="geometry">
            <mxPoint x="965.0000000000005" y="270" as="targetPoint" />
          </mxGeometry>
        </mxCell>
        <mxCell id="opAA3omX16UUN0BzFTfk-24" value="암호화 실패" style="rounded=1;whiteSpace=wrap;html=1;fontSize=12;glass=0;strokeWidth=1;shadow=0;" vertex="1" parent="1">
          <mxGeometry x="684" y="850" width="120" height="80" as="geometry" />
        </mxCell>
        <mxCell id="opAA3omX16UUN0BzFTfk-35" style="edgeStyle=orthogonalEdgeStyle;rounded=0;orthogonalLoop=1;jettySize=auto;html=1;exitX=1;exitY=0.5;exitDx=0;exitDy=0;entryX=0.5;entryY=1;entryDx=0;entryDy=0;" edge="1" parent="1" source="opAA3omX16UUN0BzFTfk-32">
          <mxGeometry relative="1" as="geometry">
            <mxPoint x="965" y="270" as="targetPoint" />
          </mxGeometry>
        </mxCell>
        <mxCell id="opAA3omX16UUN0BzFTfk-32" value="복호화 실패" style="rounded=1;whiteSpace=wrap;html=1;shadow=0;strokeWidth=1;spacing=6;spacingTop=-4;" vertex="1" parent="1">
          <mxGeometry x="684" y="540" width="120" height="60" as="geometry" />
        </mxCell>
        <mxCell id="opAA3omX16UUN0BzFTfk-50" value="&lt;font color=&quot;#ff3333&quot;&gt;Fail&lt;/font&gt;" style="edgeLabel;html=1;align=center;verticalAlign=middle;resizable=0;points=[];" vertex="1" connectable="0" parent="1">
          <mxGeometry x="648" y="574" as="geometry">
            <mxPoint x="-18" y="-193" as="offset" />
          </mxGeometry>
        </mxCell>
        <mxCell id="opAA3omX16UUN0BzFTfk-51" value="&lt;font color=&quot;#00994d&quot;&gt;Success&lt;/font&gt;" style="edgeLabel;html=1;align=center;verticalAlign=middle;resizable=0;points=[];" vertex="1" connectable="0" parent="1">
          <mxGeometry x="515" y="470" as="geometry" />
        </mxCell>
        <mxCell id="opAA3omX16UUN0BzFTfk-53" value="" style="edgeStyle=orthogonalEdgeStyle;rounded=0;orthogonalLoop=1;jettySize=auto;html=1;" edge="1" parent="1" target="opAA3omX16UUN0BzFTfk-5">
          <mxGeometry relative="1" as="geometry">
            <mxPoint x="515" y="280" as="sourcePoint" />
          </mxGeometry>
        </mxCell>
        <mxCell id="opAA3omX16UUN0BzFTfk-55" value="&lt;b style=&quot;border-color: var(--border-color);&quot;&gt;Session에 있는 Log객체&lt;br style=&quot;border-color: var(--border-color);&quot;&gt;DB INSERT&lt;/b&gt;" style="strokeWidth=1;html=1;shape=mxgraph.flowchart.terminator;whiteSpace=wrap;strokeColor=#3333FF;" vertex="1" parent="1">
          <mxGeometry x="912" y="944" width="160" height="60" as="geometry" />
        </mxCell>
        <mxCell id="opAA3omX16UUN0BzFTfk-57" value="&lt;b style=&quot;border-color: var(--border-color);&quot;&gt;Session에 있는 Log객체&lt;br style=&quot;border-color: var(--border-color);&quot;&gt;업데이트&lt;/b&gt;" style="strokeWidth=1;html=1;shape=mxgraph.flowchart.terminator;whiteSpace=wrap;strokeColor=#3333FF;" vertex="1" parent="1">
          <mxGeometry x="880" y="210" width="160" height="60" as="geometry" />
        </mxCell>
        <mxCell id="opAA3omX16UUN0BzFTfk-58" value="&lt;b style=&quot;border-color: var(--border-color);&quot;&gt;API Main Log 객체&lt;br style=&quot;border-color: var(--border-color);&quot;&gt;Session에 저장&lt;/b&gt;" style="rounded=1;whiteSpace=wrap;html=1;absoluteArcSize=1;arcSize=14;strokeWidth=1;strokeColor=#3333FF;" vertex="1" parent="1">
          <mxGeometry x="440" y="220" width="150" height="60" as="geometry" />
        </mxCell>
      </root>
    </mxGraphModel>
  </diagram>
</mxfile>
